# xmcd CD database file
#
# Track frame offsets:
#	150
#	25494
#	44822
#	64894
#	87433
#	108766
#	133327
#	154768
#	171390
#	193011
#
# Disc length: 2918 seconds
#
# Revision: 1
# Processed by: cddbd v1.5.2PL0 Copyright (c) Steve Scherf et al.
# Submitted via: CDex 1.70beta2
#
DISCID=930b640a
DTITLE=Baby Boy Varhama - The Year Of The Blues
DYEAR=2007
DGENRE=Blues
TTITLE0=Today I Sing The Blues
TTITLE1=I've Been One
TTITLE2=Woman
TTITLE3=Broke My Baby's Heart
TTITLE4=Gimme Bread
TTITLE5=Dark Clouds
TTITLE6=What Am I Living For
TTITLE7=The Year Of The Blues
TTITLE8=No Veto On Life
TTITLE9=(It Takes) Two Guitars (To Play These) Blues
EXTD=www.babyboyvarhama.com YEAR: 2007
EXTT0=
EXTT1=
EXTT2=
EXTT3=
EXTT4=
EXTT5=
EXTT6=
EXTT7=
EXTT8=
EXTT9=
PLAYORDER=
